<?xml version="1.0" encoding="iso-8859-1"?>
<!-- Generator: Adobe Illustrator 19.0.0, SVG Export Plug-In . SVG Version: 6.00 Build 0)  -->
<svg version="1.1" id="Capa_1" xmlns="http://www.w3.org/2000/svg" xmlns:xlink="http://www.w3.org/1999/xlink" x="0px" y="0px"
	 viewBox="0 0 512.002 512.002" style="enable-background:new 0 0 512.002 512.002;" xml:space="preserve">
<polygon style="fill:#009AD2;" points="180.001,255.004 180.001,373.808 210.001,373.808 210.001,255.004 195.001,235.004 "/>
<path style="fill:#00B8FA;" d="M330.998,226c0-24.811-20.19-44.996-45-45l-19.993,135l64.993-45V226z"/>
<path style="fill:#5CD4FF;" d="M285.998,181c-24.813,0-45,20.187-45,45v60l45,30V181z"/>
<polygon style="fill:#009AD2;" points="330.998,301 285.998,286 266.005,389.016 330.998,389.016 "/>
<rect x="241" y="286" style="fill:#00B8FA;" width="45" height="103.02"/>
<polygon style="fill:#007CAA;" points="330.998,271 285.998,271 266.005,286 285.998,301 330.998,301 "/>
<rect x="190" y="271" style="fill:#009AD2;" width="96" height="30"/>
<path style="fill:#00B8FA;" d="M285.998,0l-29.993,51.964l29.993,51.964c45.017,22.17,76.003,68.5,76.003,122.072
	s-30.986,99.902-76.003,122.072l-29.993,51.964L285.998,452c124.817,0,226.003-101.184,226.003-226S410.815,0,285.998,0z"/>
<path style="fill:#5CD4FF;" d="M226.004,362c-75.111,0-136.003-60.889-136.003-136S150.893,90,226.004,90
	c21.539,0,41.895,5.015,59.994,13.928V0C161.182,0,60.001,101.184,60.001,226s101.181,226,225.997,226V348.072
	C267.899,356.985,247.542,362,226.004,362z"/>
<path style="fill:#009AD2;" d="M15.001,60h-15v452.002h30V90.676c83.982,7.6,150,78.398,150,164.328h30
	C210.001,147.478,122.524,60,15.001,60z"/>
<g>
</g>
<g>
</g>
<g>
</g>
<g>
</g>
<g>
</g>
<g>
</g>
<g>
</g>
<g>
</g>
<g>
</g>
<g>
</g>
<g>
</g>
<g>
</g>
<g>
</g>
<g>
</g>
<g>
</g>
</svg>
